<?xml version="1.0" encoding="UTF-8" standalone="no"?>
<!DOCTYPE svg PUBLIC "-//W3C//DTD SVG 1.1//EN" "http://www.w3.org/Graphics/SVG/1.1/DTD/svg11.dtd">
<svg width="100%" height="100%" viewBox="0 0 105 139" version="1.1" xmlns="http://www.w3.org/2000/svg" xmlns:xlink="http://www.w3.org/1999/xlink" xml:space="preserve" xmlns:serif="http://www.serif.com/" style="fill-rule:evenodd;clip-rule:evenodd;stroke-linejoin:round;stroke-miterlimit:2;">
    <g transform="matrix(1,0,0,1,-55.8859,-36.1)">
        <g transform="matrix(0.2867,-0.958,0.958,0.2867,28.9069,200.654)">
            <circle cx="149.2" cy="80.9" r="8.7" style="fill:white;"/>
        </g>
        <g transform="matrix(0.9732,-0.2298,0.2298,0.9732,-8.4831,20.3125)">
            <circle cx="83" cy="46.6" r="8.7" style="fill:white;"/>
        </g>
        <path d="M149.6,94C144.9,94 140.7,91.5 138.4,87.7C136.6,96.3 136,99.6 133.4,110.9C132.7,114 131.2,117 129.4,119.7C127.4,122.7 124.1,123.9 120.5,123.7C116.3,123.5 114.4,121.6 114.3,117.4C114.3,115.8 114.4,114.2 114.7,112.7C115.7,107.8 114.4,113.4 115.4,108.5C116.7,102.2 118.7,96 117.9,89.5C116.8,80 110.2,72.8 100.8,71.2C95.9,70.4 91.2,71.1 86.2,73.2C86.7,70.6 88.3,63.6 89.5,58.1C87.6,59.2 85.4,59.8 83,59.8C78.5,59.8 74.5,57.5 72.1,53.9C69.2,67.6 66.3,81.2 63.4,94.9C61,106.2 58.6,117.4 56.2,128.7C55.4,132.6 56,136.1 59.5,138.4C62.7,140.5 66.2,140.2 69.4,138.2C72.4,136.4 73.6,133.4 74.3,130.1C77.2,116.7 77.6,113.7 80.6,100.4C81.1,98.1 82.1,95.7 83.3,93.7C85.6,89.9 89.2,87.9 93.8,88.2C97.6,88.5 99.6,90.4 99.6,94.1C99.6,96.9 99.1,99.7 98.6,102.4C97,110.6 97.1,108.2 96.1,116.4C94,132.4 106.6,143.7 122.4,140.3C124.1,139.9 125.7,139.3 127.5,138.8C127.3,139.8 127.2,140.5 127.1,141.2C126.2,145.2 122.8,160.6 122,164.6C120.8,170 124.9,175.1 130.5,175.1C134.6,175.1 138.1,172.3 138.9,168.3C143.9,145.8 149,122.8 154,100.4C154.6,97.8 155.1,95.2 155.7,92.6C153.8,93.4 151.8,94 149.6,94Z" style="fill:white;fill-rule:nonzero;"/>
    </g>
</svg>
