<?xml version="1.0" encoding="UTF-8" standalone="no"?>
<!DOCTYPE svg PUBLIC "-//W3C//DTD SVG 1.1//EN" "http://www.w3.org/Graphics/SVG/1.1/DTD/svg11.dtd">
<svg width="100%" height="100%" viewBox="0 0 114 154" version="1.1" xmlns="http://www.w3.org/2000/svg" xmlns:xlink="http://www.w3.org/1999/xlink" xml:space="preserve" xmlns:serif="http://www.serif.com/" style="fill-rule:evenodd;clip-rule:evenodd;stroke-linejoin:round;stroke-miterlimit:2;">
    <g id="Layer-1" serif:id="Layer 1" transform="matrix(2.66667,0,0,2.66667,-123.531,-56.3736)">
        <g transform="matrix(1,0,0,1,85.54,61.7427)">
            <path d="M0,-17.106C-1.986,-17.106 -3.729,-18.17 -4.687,-19.759C-5.453,-16.147 -5.686,-14.764 -6.768,-10.049C-7.063,-8.759 -7.703,-7.488 -8.438,-6.377C-9.272,-5.116 -10.645,-4.613 -12.179,-4.699C-13.938,-4.797 -14.723,-5.579 -14.761,-7.327C-14.775,-7.989 -14.735,-8.666 -14.606,-9.313C-14.199,-11.367 -14.714,-9.025 -14.3,-11.078C-13.768,-13.711 -12.934,-16.298 -13.239,-19.057C-13.682,-23.044 -16.472,-26.055 -20.425,-26.726C-22.48,-27.075 -24.458,-26.787 -26.528,-25.905C-26.304,-26.988 -25.654,-29.93 -25.152,-32.22C-25.955,-31.757 -26.884,-31.491 -27.875,-31.491C-29.777,-31.491 -31.455,-32.467 -32.436,-33.945C-33.64,-28.222 -34.853,-22.502 -36.065,-16.78C-37.065,-12.063 -38.063,-7.345 -39.079,-2.632C-39.433,-0.993 -39.142,0.456 -37.706,1.412C-36.367,2.303 -34.918,2.171 -33.569,1.341C-32.315,0.57 -31.811,-0.689 -31.515,-2.062C-30.309,-7.676 -30.117,-8.914 -28.861,-14.517C-28.644,-15.489 -28.254,-16.468 -27.735,-17.318C-26.757,-18.92 -25.282,-19.758 -23.34,-19.604C-21.762,-19.48 -20.909,-18.704 -20.919,-17.122C-20.927,-15.96 -21.132,-14.79 -21.356,-13.643C-22.028,-10.22 -21.965,-11.215 -22.415,-7.765C-23.29,-1.05 -18.005,3.664 -11.391,2.261C-10.696,2.114 -10.025,1.859 -9.259,1.628C-9.334,2.033 -9.382,2.339 -9.447,2.642C-9.807,4.298 -11.233,10.789 -11.594,12.445C-12.084,14.705 -10.363,16.839 -8.052,16.839C-6.352,16.839 -4.881,15.659 -4.513,13.999C-2.42,4.56 -0.282,-5.056 1.798,-14.457C2.038,-15.543 2.274,-16.629 2.508,-17.717C1.756,-17.328 0.903,-17.106 0,-17.106" style="fill:rgb(54,21,150);fill-rule:nonzero;"/>
        </g>
        <g transform="matrix(0,-1,-1,0,57.6133,21.1396)">
            <path d="M-3.647,-3.647C-1.633,-3.647 -0.001,-2.014 -0.001,-0.001C-0.001,2.014 -1.633,3.647 -3.647,3.647C-5.661,3.647 -7.293,2.014 -7.293,-0.001C-7.293,-2.014 -5.661,-3.647 -3.647,-3.647" style="fill:rgb(54,21,150);fill-rule:nonzero;"/>
        </g>
        <g transform="matrix(0,-1,-1,0,85.353,35.522)">
            <path d="M-3.646,-3.647C-1.632,-3.647 0,-2.014 0,-0.001C0,2.013 -1.632,3.646 -3.646,3.646C-5.661,3.646 -7.293,2.013 -7.293,-0.001C-7.293,-2.014 -5.661,-3.647 -3.646,-3.647" style="fill:rgb(54,21,150);fill-rule:nonzero;"/>
        </g>
    </g>
</svg>
