<?xml version="1.0" encoding="UTF-8" standalone="no"?>
<!DOCTYPE svg PUBLIC "-//W3C//DTD SVG 1.1//EN" "http://www.w3.org/Graphics/SVG/1.1/DTD/svg11.dtd">
<svg width="100%" height="100%" viewBox="0 0 277 88" version="1.1" xmlns="http://www.w3.org/2000/svg" xmlns:xlink="http://www.w3.org/1999/xlink" xml:space="preserve" xmlns:serif="http://www.serif.com/" style="fill-rule:evenodd;clip-rule:evenodd;stroke-linejoin:round;stroke-miterlimit:2;">
    <g transform="matrix(1,0,0,1,-236.9,-70.8)">
        <path d="M236.9,70.8L251.8,70.8L251.8,94.4C252.8,93.4 253.9,92.4 255.2,91.6C257.5,90.3 261.1,88.8 266.1,88.8C277.1,88.8 285.3,97 285.3,110.3L285.3,140L270.4,140L270.4,113C270.4,106.4 266.7,102.5 261.1,102.5C255.5,102.5 251.8,106.4 251.8,113L251.8,140L236.9,140L236.9,70.8Z" style="fill:rgb(55,43,132);fill-rule:nonzero;"/>
        <path d="M338.1,125.3C335.5,133.5 327.5,141.3 314.5,141.3C300.9,141.3 289.2,129.7 289.2,114.9C289.2,100.1 300.7,88.5 315.1,88.5C328.9,88.5 339.9,99 339.9,114.9C339.9,116.1 339.7,117.2 339.6,118.2L339.4,119.8L304.7,119.8C305.9,123.7 309.5,127.5 315.2,127.5C318,127.5 319.9,126.7 321.1,125.8C321.9,125.4 322.4,124.8 322.9,124.2L338.1,125.3ZM325.5,110.4C324.3,106 320.7,102.2 315,102.2C309.4,102.2 305.8,106.1 304.5,110.4L325.5,110.4Z" style="fill:rgb(55,43,132);fill-rule:nonzero;"/>
        <path d="M344.7,145.1C350.9,145.1 353.5,142.3 355.2,137.9L336,89.5L352,89.5L363,120.9L374,89.5L390,89.5L369.6,140.1C364.4,152.7 359.2,158.2 349.8,158.2C348.6,158.2 347.5,158.1 346.5,158L344.8,157.7L344.8,145.1L344.7,145.1Z" style="fill:rgb(55,43,132);fill-rule:nonzero;"/>
        <path d="M412.4,88.4C426.7,88.4 438.2,99.9 438.2,114.8C438.2,129.7 426.7,141.2 412.4,141.2C398.1,141.2 386.5,129.6 386.5,114.8C386.5,100 398.1,88.4 412.4,88.4ZM412.4,102.2C406.2,102.2 401.4,107 401.4,114.8C401.4,122.6 406.2,127.5 412.4,127.5C418.6,127.5 423.4,122.7 423.4,114.8C423.4,106.9 418.5,102.2 412.4,102.2Z" style="fill:rgb(55,43,132);fill-rule:nonzero;"/>
        <path d="M442.1,89.5L456.9,89.5L456.9,116.5C456.9,123.1 460.6,126.9 466.3,126.9C471.9,126.9 475.6,123 475.6,116.5L475.6,89.5L490.5,89.5L490.5,140.1L479.5,140.1L477.3,135.1C476.1,136.1 474.7,137.1 473.1,137.9C470.5,139.3 466.8,140.7 462.4,140.7C450.4,140.7 442.1,132.5 442.1,119.3L442.1,89.5Z" style="fill:rgb(55,43,132);fill-rule:nonzero;"/>
        <path d="M496,70.8L513.6,70.8L511.9,119.2L497.6,119.2L496,70.8ZM504.8,140.7C500.4,140.7 496.6,136.9 496.6,132.5C496.6,128.1 500.4,124.3 504.8,124.3C509.2,124.3 513,128.2 513,132.5C513,136.8 509.2,140.7 504.8,140.7Z" style="fill:rgb(55,43,132);fill-rule:nonzero;"/>
    </g>
</svg>
