<?xml version="1.0" encoding="UTF-8" standalone="no"?>
<!DOCTYPE svg PUBLIC "-//W3C//DTD SVG 1.1//EN" "http://www.w3.org/Graphics/SVG/1.1/DTD/svg11.dtd">
<svg width="100%" height="100%" viewBox="0 0 338 154" version="1.1" xmlns="http://www.w3.org/2000/svg" xmlns:xlink="http://www.w3.org/1999/xlink" xml:space="preserve" xmlns:serif="http://www.serif.com/" style="fill-rule:evenodd;clip-rule:evenodd;stroke-linejoin:round;stroke-miterlimit:2;">
    <g id="Layer-1" serif:id="Layer 1" transform="matrix(2.66667,0,0,2.66667,-123.531,-56.3736)">
        <g transform="matrix(1,0,0,1,94.7979,60.338)">
            <path d="M0,-19.589L4.198,-19.589L4.198,-12.904C4.478,-13.184 4.789,-13.464 5.162,-13.682C5.814,-14.055 6.841,-14.459 8.24,-14.459C11.35,-14.459 13.682,-12.127 13.682,-8.396L13.682,0L9.483,0L9.483,-7.618C9.483,-9.484 8.427,-10.572 6.841,-10.572C5.255,-10.572 4.198,-9.484 4.198,-7.618L4.198,0L0,0L0,-19.589Z" style="fill:rgb(55,43,132);fill-rule:nonzero;"/>
        </g>
        <g transform="matrix(1,0,0,1,119.829,54.4304)">
            <path d="M0,-2.488C-0.343,-3.731 -1.369,-4.82 -2.954,-4.82C-4.54,-4.82 -5.566,-3.731 -5.908,-2.488L0,-2.488ZM3.575,1.71C2.829,4.042 0.591,6.219 -3.109,6.219C-6.966,6.219 -10.262,2.953 -10.262,-1.244C-10.262,-5.442 -6.997,-8.707 -2.954,-8.707C0.933,-8.707 4.042,-5.753 4.042,-1.244C4.042,-0.902 3.979,-0.591 3.948,-0.311L3.887,0.156L-5.908,0.156C-5.566,1.243 -4.54,2.332 -2.954,2.332C-2.177,2.332 -1.617,2.115 -1.275,1.866C-1.058,1.741 -0.902,1.586 -0.777,1.399L3.575,1.71Z" style="fill:rgb(55,43,132);fill-rule:nonzero;"/>
        </g>
        <g transform="matrix(1,0,0,1,125.27,49.7663)">
            <path d="M0,11.971C1.741,11.971 2.487,11.194 2.954,9.95L-2.487,-3.731L2.021,-3.731L5.131,5.13L8.24,-3.731L12.749,-3.731L6.996,10.572C5.535,14.148 4.042,15.702 1.399,15.702C1.057,15.702 0.746,15.671 0.467,15.641L0,15.547L0,11.971Z" style="fill:rgb(55,43,132);fill-rule:nonzero;"/>
        </g>
        <g transform="matrix(1,0,0,1,144.394,56.7624)">
            <path d="M0,-7.152C-1.741,-7.152 -3.109,-5.784 -3.109,-3.576C-3.109,-1.368 -1.741,0 0,0C1.741,0 3.109,-1.368 3.109,-3.576C3.109,-5.784 1.741,-7.152 0,-7.152M0,-11.039C4.042,-11.039 7.307,-7.774 7.307,-3.576C7.307,0.621 4.042,3.887 0,3.887C-4.043,3.887 -7.308,0.621 -7.308,-3.576C-7.308,-7.774 -4.043,-11.039 0,-11.039" style="fill:rgb(55,43,132);fill-rule:nonzero;"/>
        </g>
        <g transform="matrix(1,0,0,1,152.789,60.4942)">
            <path d="M0,-14.459L4.197,-14.459L4.197,-6.841C4.197,-4.976 5.255,-3.888 6.841,-3.888C8.426,-3.888 9.483,-4.976 9.483,-6.841L9.483,-14.459L13.682,-14.459L13.682,-0.156L10.572,-0.156L9.95,-1.555C9.608,-1.275 9.203,-0.995 8.769,-0.777C8.022,-0.373 6.996,0 5.752,0C2.363,0 0,-2.332 0,-6.063L0,-14.459Z" style="fill:rgb(55,43,132);fill-rule:nonzero;"/>
        </g>
        <g transform="matrix(1,0,0,1,170.513,40.7491)">
            <path d="M0,19.745C-1.244,19.745 -2.332,18.656 -2.332,17.413C-2.332,16.169 -1.244,15.08 0,15.08C1.243,15.08 2.332,16.169 2.332,17.413C2.332,18.656 1.243,19.745 0,19.745M-2.488,0L2.487,0L2.021,13.682L-2.021,13.682L-2.488,0Z" style="fill:rgb(55,43,132);fill-rule:nonzero;"/>
        </g>
        <g transform="matrix(1,0,0,1,85.54,61.7427)">
            <path d="M0,-17.106C-1.986,-17.106 -3.729,-18.17 -4.687,-19.759C-5.453,-16.147 -5.686,-14.764 -6.768,-10.049C-7.063,-8.759 -7.703,-7.488 -8.438,-6.377C-9.272,-5.116 -10.645,-4.613 -12.179,-4.699C-13.938,-4.797 -14.723,-5.579 -14.761,-7.327C-14.775,-7.989 -14.735,-8.666 -14.606,-9.313C-14.199,-11.367 -14.714,-9.025 -14.3,-11.078C-13.768,-13.711 -12.934,-16.298 -13.239,-19.057C-13.682,-23.044 -16.472,-26.055 -20.425,-26.726C-22.48,-27.075 -24.458,-26.787 -26.528,-25.905C-26.304,-26.988 -25.654,-29.93 -25.152,-32.22C-25.955,-31.757 -26.884,-31.491 -27.875,-31.491C-29.777,-31.491 -31.455,-32.467 -32.436,-33.945C-33.64,-28.222 -34.853,-22.502 -36.065,-16.78C-37.065,-12.063 -38.063,-7.345 -39.079,-2.632C-39.433,-0.993 -39.142,0.456 -37.706,1.412C-36.367,2.303 -34.918,2.171 -33.569,1.341C-32.315,0.57 -31.811,-0.689 -31.515,-2.062C-30.309,-7.676 -30.117,-8.914 -28.861,-14.517C-28.644,-15.489 -28.254,-16.468 -27.735,-17.318C-26.757,-18.92 -25.282,-19.758 -23.34,-19.604C-21.762,-19.48 -20.909,-18.704 -20.919,-17.122C-20.927,-15.96 -21.132,-14.79 -21.356,-13.643C-22.028,-10.22 -21.965,-11.215 -22.415,-7.765C-23.29,-1.05 -18.005,3.664 -11.391,2.261C-10.696,2.114 -10.025,1.859 -9.259,1.628C-9.334,2.033 -9.382,2.339 -9.447,2.642C-9.807,4.298 -11.233,10.789 -11.594,12.445C-12.084,14.705 -10.363,16.839 -8.052,16.839C-6.352,16.839 -4.881,15.659 -4.513,13.999C-2.42,4.56 -0.282,-5.056 1.798,-14.457C2.038,-15.543 2.274,-16.629 2.508,-17.717C1.756,-17.328 0.903,-17.106 0,-17.106" style="fill:rgb(54,21,150);fill-rule:nonzero;"/>
        </g>
        <g transform="matrix(0,-1,-1,0,57.6133,21.1396)">
            <path d="M-3.647,-3.647C-1.633,-3.647 -0.001,-2.014 -0.001,-0.001C-0.001,2.014 -1.633,3.647 -3.647,3.647C-5.661,3.647 -7.293,2.014 -7.293,-0.001C-7.293,-2.014 -5.661,-3.647 -3.647,-3.647" style="fill:rgb(54,21,150);fill-rule:nonzero;"/>
        </g>
        <g transform="matrix(0,-1,-1,0,85.353,35.522)">
            <path d="M-3.646,-3.647C-1.632,-3.647 0,-2.014 0,-0.001C0,2.013 -1.632,3.646 -3.646,3.646C-5.661,3.646 -7.293,2.013 -7.293,-0.001C-7.293,-2.014 -5.661,-3.647 -3.646,-3.647" style="fill:rgb(54,21,150);fill-rule:nonzero;"/>
        </g>
    </g>
</svg>
